<?xml version="1.0" standalone="no"?>
<!DOCTYPE svg PUBLIC "-//W3C//DTD SVG 20010904//EN"
 "http://www.w3.org/TR/2001/REC-SVG-20010904/DTD/svg10.dtd">
<svg version="1.0" xmlns="http://www.w3.org/2000/svg"
 width="512.000000pt" height="512.000000pt" viewBox="0 0 512.000000 512.000000"
 preserveAspectRatio="xMidYMid meet">
<metadata>
Created by potrace 1.14, written by Peter Selinger 2001-2017
</metadata>
<g transform="translate(0.000000,512.000000) scale(0.100000,-0.100000)"
fill="#000000" stroke="none">
<path d="M2449 5116 c-2 -2 -26 -7 -54 -11 -62 -8 -207 -56 -277 -91 -136 -69
-284 -199 -368 -323 -222 -330 -226 -762 -9 -1089 16 -24 29 -45 29 -47 0 -2
-34 -39 -76 -81 -184 -188 -306 -434 -342 -689 -13 -93 -6 -316 12 -403 108
-514 516 -897 1036 -972 66 -9 297 -6 360 5 257 46 477 162 665 350 127 128
252 325 260 411 9 90 -120 137 -172 63 -7 -9 -28 -47 -47 -84 -153 -293 -436
-496 -755 -543 -96 -14 -302 -6 -388 16 -220 56 -437 195 -558 357 -16 22 -32
42 -35 45 -15 14 -72 112 -99 170 -27 60 -61 168 -76 245 -13 64 -13 253 0
333 25 156 93 320 181 438 54 72 153 174 215 220 52 38 75 80 65 120 -4 14
-31 56 -60 93 -107 134 -164 278 -173 444 -21 390 241 731 623 811 96 20 269
14 362 -13 276 -80 479 -291 554 -576 14 -54 18 -266 6 -326 -11 -56 -57 -179
-86 -229 -14 -25 -49 -74 -77 -110 -83 -104 -81 -153 7 -216 107 -78 227 -222
299 -360 55 -108 96 -133 163 -103 23 11 56 62 56 89 0 20 -43 113 -83 180
-56 94 -112 166 -191 244 -58 57 -68 71 -58 85 208 300 239 687 79 1006 -135
270 -375 455 -682 526 -48 11 -297 23 -306 15z"/>
<path d="M2443 4626 c-180 -44 -336 -204 -374 -384 -24 -118 5 -275 69 -371
93 -139 225 -217 387 -228 186 -13 350 69 457 228 95 141 102 347 17 506 -42
79 -140 173 -220 211 -106 50 -228 64 -336 38z m239 -213 c65 -29 113 -77 146
-142 36 -75 38 -193 4 -258 -33 -63 -79 -111 -136 -141 -44 -23 -63 -27 -136
-27 -70 0 -93 4 -130 24 -62 32 -107 77 -138 136 -22 42 -26 63 -26 135 -1 76
2 91 29 139 76 137 247 196 387 134z"/>
<path d="M2420 3344 c-201 -42 -374 -160 -484 -331 -25 -39 -46 -75 -46 -80 0
-4 -6 -20 -14 -35 -42 -80 -64 -293 -44 -413 30 -175 144 -352 296 -463 137
-99 280 -142 452 -137 232 7 424 103 565 286 69 89 126 214 143 314 9 52 9
209 0 260 -50 284 -266 517 -548 590 -85 22 -238 26 -320 9z m285 -207 c99
-26 224 -112 286 -197 116 -157 138 -373 56 -550 -17 -38 -92 -143 -117 -163
-65 -54 -128 -92 -193 -115 -61 -22 -88 -26 -182 -26 -95 0 -119 4 -179 27
-69 27 -176 97 -209 136 -96 116 -137 214 -143 346 -12 255 172 496 419 550
71 15 188 12 262 -8z"/>
<path d="M3628 2703 c-105 -67 -18 -224 96 -172 27 13 56 64 56 98 0 11 -12
34 -27 51 -35 38 -86 48 -125 23z"/>
<path d="M320 993 c-45 -17 -72 -63 -85 -143 -12 -74 -66 -377 -75 -420 -5
-25 -12 -61 -14 -80 -5 -31 -13 -77 -32 -175 -16 -81 -7 -124 32 -150 68 -44
148 0 160 89 3 17 9 51 14 76 5 25 16 86 25 135 9 50 21 115 27 145 11 52 12
53 19 25 4 -16 34 -120 67 -230 66 -220 81 -248 147 -261 47 -8 103 17 122 56
6 14 40 124 75 245 66 233 64 229 83 117 3 -18 12 -66 20 -105 8 -40 17 -90
20 -112 3 -22 8 -46 11 -54 2 -8 7 -30 10 -50 8 -51 52 -93 97 -93 44 0 83 25
96 62 11 32 11 29 -24 210 -13 69 -26 140 -30 157 -3 18 -14 77 -24 130 -11
54 -22 109 -24 123 -3 14 -10 52 -16 85 -12 64 -18 95 -26 135 -2 13 -18 38
-35 55 -26 25 -38 30 -80 30 -42 0 -54 -5 -80 -30 -17 -17 -32 -40 -34 -50 -4
-17 -129 -459 -139 -490 -3 -9 -38 94 -57 170 -25 96 -100 335 -111 352 -24
39 -96 63 -139 46z"/>
<path d="M1700 978 c-37 -25 -34 -19 -147 -318 -36 -96 -71 -188 -78 -205 -7
-16 -26 -66 -43 -110 -16 -44 -42 -110 -56 -148 -40 -103 -33 -152 24 -182 70
-36 122 -1 165 110 l27 71 171 -1 171 0 32 -80 c44 -109 95 -139 165 -98 29
17 37 30 45 72 4 21 -272 776 -313 854 -15 30 -66 57 -106 57 -13 0 -39 -10
-57 -22z m109 -449 c22 -57 42 -111 45 -119 5 -13 -8 -15 -86 -14 -51 0 -93 4
-93 10 0 9 40 122 56 159 5 11 13 33 19 49 6 16 13 27 15 24 3 -2 22 -51 44
-109z"/>
<path d="M2432 987 c-54 -31 -53 -23 -52 -481 0 -457 1 -466 51 -492 45 -23
78 -17 113 19 l33 32 1 124 c1 68 3 125 4 127 3 2 45 -44 187 -205 82 -95 88
-100 116 -107 73 -18 139 48 121 121 -6 23 -87 123 -178 220 -21 22 -38 43
-38 46 0 3 18 14 40 24 23 10 63 40 90 66 152 151 103 401 -98 492 -41 18 -69
22 -207 24 -118 3 -166 0 -183 -10z m313 -201 c34 -15 65 -59 65 -95 0 -67
-53 -103 -157 -106 -81 -3 -75 -10 -75 80 0 19 1 58 1 85 l1 50 65 0 c36 0 81
-6 100 -14z"/>
<path d="M3595 986 c-213 -52 -364 -233 -382 -456 -11 -140 41 -273 147 -381
94 -96 195 -139 335 -145 75 -3 101 1 156 20 161 56 248 166 193 244 -28 40
-64 52 -108 37 -22 -8 -50 -25 -63 -39 -58 -63 -173 -81 -271 -44 -116 44
-193 162 -188 289 11 226 239 354 447 249 47 -23 74 -31 91 -27 63 16 96 79
72 135 -16 39 -86 85 -163 108 -69 21 -199 26 -266 10z"/>
<path d="M4325 991 c-11 -5 -29 -19 -40 -31 -19 -21 -20 -36 -20 -462 l0 -440
34 -30 c29 -26 39 -30 74 -25 80 11 93 51 91 265 -1 100 2 142 10 143 42 4
329 3 335 -1 4 -3 8 -75 7 -160 0 -85 3 -168 7 -183 9 -32 60 -67 99 -67 16 0
41 12 60 29 l33 29 0 442 0 442 -33 29 c-48 43 -114 36 -148 -17 -15 -22 -18
-53 -20 -178 -1 -83 -2 -153 -3 -156 0 -3 -79 -6 -173 -5 l-173 0 -1 156 c-1
168 -7 190 -54 214 -32 16 -55 18 -85 6z"/>
</g>
</svg>
